<?xml version="1.0" encoding="utf-8"?><svg width="150" height="66" viewBox="0 0 150 66" xmlns="http://www.w3.org/2000/svg" xmlns:xlink="http://www.w3.org/1999/xlink"><svg viewBox="0 0 10 8.6" width="10" height="8.6" id="hearth" xmlns="http://www.w3.org/2000/svg"><path d="M2.604.02c-1.2.1-2.6.9-2.6 2.2-.1 1.6.9 3.1 2 4.2.9.8 1.9 1.6 3 2.2 1.5-.9 2.9-2 4-3.4.7-1 1.2-2.2.9-3.4s-1.7-1.9-2.9-1.8c-1 .1-1.6.9-2 1.7-.4-.9-1.2-1.8-2.4-1.7z" fill="#ea4c89"/></svg><svg viewBox="0 0 150 56.9" width="150" height="56.9" id="logo" y="9" xmlns="http://www.w3.org/2000/svg"><path d="M19.4 22.9v-8h-4.9v3.5H6L19.4 4.7V0H0v8.1h4.9V4.5h8.3L0 18.2v4.7zM28.8 6.2c1.2 0 2.2.2 3.2.7s1.8 1 2.5 1.8 1.3 1.6 1.6 2.6c.4 1 .6 2.1.6 3.2s-.2 2.2-.6 3.2-.9 1.9-1.6 2.7-1.5 1.4-2.5 1.8-2.1.7-3.3.7-2.3-.2-3.3-.7c-1-.4-1.8-1-2.5-1.8s-1.2-1.6-1.6-2.6-.6-2.1-.6-3.3c0-1.1.2-2.2.6-3.2s.9-1.9 1.7-2.6 1.5-1.3 2.5-1.8c1.1-.4 2.2-.7 3.3-.7zm0 4.2c-.6 0-1.1.1-1.6.3s-.9.5-1.3.8c-.4.4-.7.8-.9 1.3s-.3 1.1-.3 1.7.1 1.2.3 1.7.5 1 .9 1.3c.4.4.8.7 1.3.9s1 .3 1.6.3 1.1-.1 1.6-.3.9-.5 1.3-.9.6-.8.8-1.3.3-1.1.3-1.7-.1-1.2-.3-1.7-.5-1-.8-1.3c-.4-.4-.8-.6-1.3-.8s-1-.3-1.6-.3zM67.2 6.2c1.2 0 2.3.2 3.3.6.9.4 1.7 1 2.4 1.7s1.2 1.6 1.5 2.5c.4 1 .5 2 .6 3.1 0 .3 0 .5.1.7v.8H63.5v.5l.1.2c.1.4.3.7.5 1l.9.9c.4.2.8.4 1.2.5s.9.2 1.3.2c.5 0 .9 0 1.3-.1s.8-.1 1.2-.2.8-.2 1.1-.3c.4-.1.7-.3 1.1-.4l1.7 3.1-.3.2c-.5.3-.9.5-1.3.7-.5.2-1 .4-1.4.6-.5.2-1 .3-1.5.4s-1.2.1-1.9.1c-1.4 0-2.6-.2-3.6-.7-1.1-.4-1.9-1.1-2.7-1.8-.7-.8-1.3-1.7-1.6-2.7-.4-1-.6-2.1-.6-3.2s.2-2.2.6-3.2 1-1.9 1.7-2.6 1.6-1.3 2.6-1.8 2.1-.8 3.3-.8zm-.1 3.8c-.6 0-1 .1-1.4.2s-.7.3-1 .6c-.3.2-.5.5-.6.8-.2.3-.3.6-.4.9h6.5c-.1-.3-.2-.7-.3-1s-.3-.6-.5-.8-.5-.4-.9-.5-.9-.2-1.4-.2zM8.5 27.1h.3c.9 0 1.8.2 2.6.4.9.3 1.8.7 2.6 1.1s1.5 1.1 2.2 1.8 1.2 1.5 1.7 2.3.8 1.8 1.1 2.7.4 2 .4 3.1-.1 2.1-.4 3.1-.6 1.9-1.1 2.7c-.5.9-1 1.6-1.7 2.3s-1.4 1.3-2.2 1.8-1.7.9-2.6 1.2-1.8.4-2.9.4H0v-4.1h1.8V31.2H0V27h8.5zm.3 4.1H6.9v14.6h1.9c.8 0 1.6-.2 2.3-.6s1.4-.9 1.9-1.6 1-1.4 1.3-2.3.5-1.9.5-2.9-.2-2-.5-2.9c-.3-.7-.7-1.5-1.3-2.2-.5-.7-1.2-1.2-1.9-1.5-.7-.4-1.5-.6-2.3-.6zM45.2 50c.8 0 1.7-.1 2.5-.3s1.6-.6 2.2-1c.7-.4 1.2-1 1.6-1.7s.6-1.4.6-2.3c0-.6-.1-1.1-.3-1.6s-.5-.9-.9-1.3-.9-.7-1.6-1-1.5-.5-2.5-.7l-2.7-.6c-.3 0-.5-.1-.7-.2s-.3-.2-.4-.3-.2-.2-.2-.3-.1-.2-.1-.3c0-.2.1-.4.2-.6s.3-.3.5-.4.4-.2.6-.2.5-.1.7-.1c.5 0 1 0 1.4.1s.8.2 1.1.4.5.4.7.6.2.4.2.7h3.8v-4.2h-2.5c-.2-.2-.5-.4-.8-.5-.3-.2-.6-.3-1-.4s-.8-.2-1.3-.3-1-.1-1.6-.1c-.9 0-1.7.1-2.5.4-.8.2-1.5.6-2 1-.6.4-1 1-1.4 1.6s-.5 1.3-.5 2c0 1.3.4 2.3 1.3 3.1s2.2 1.4 4 1.7l2.8.6c.5.1.8.3 1 .5s.3.5.3.7c0 .4-.2.7-.6.9s-1 .4-1.9.4c-.4 0-.7 0-1.1-.1s-.6-.2-.9-.3-.5-.3-.6-.5c-.2-.2-.3-.5-.3-.8v-.1h-4.1v4.2h2.6c.2.2.5.4.8.5.3.2.6.3.9.4l1.2.3c.5.1 1 .1 1.5.1zM143.1 50c.8 0 1.7-.1 2.5-.3s1.6-.6 2.2-1 1.2-1 1.6-1.7.6-1.4.6-2.3c0-.6-.1-1.1-.3-1.6s-.5-.9-.9-1.3-.9-.7-1.6-1-1.5-.5-2.5-.7l-2.7-.6c-.3 0-.5-.1-.7-.2s-.3-.2-.4-.3-.2-.2-.2-.3-.1-.2-.1-.3c0-.2.1-.4.2-.6s.3-.3.5-.4.4-.2.6-.2.5-.1.7-.1c.5 0 1 0 1.4.1s.8.2 1.1.4.5.4.7.6.2.4.2.7h3.8v-4.2h-2.5c-.2-.2-.5-.4-.8-.5-.3-.2-.6-.3-1-.4s-.8-.2-1.3-.3-1-.1-1.6-.1c-.9 0-1.7.1-2.5.4-.8.2-1.5.6-2 1-.6.4-1 1-1.4 1.6-.3.6-.5 1.3-.5 2 0 1.3.4 2.3 1.3 3.1s2.2 1.4 4 1.7l2.8.6c.5.1.8.3 1 .5s.3.5.3.7c0 .4-.2.7-.6.9s-1 .4-1.9.4c-.4 0-.7 0-1.1-.1l-.9-.3c-.3-.1-.5-.3-.6-.5-.2-.2-.3-.5-.3-.8v-.1h-4.1v4.2h2.6c.2.2.5.4.8.5.3.2.6.3.9.4s.8.2 1.2.3c.5.1 1 .1 1.5.1zM59 32.5c.4 0 .7-.1 1-.2s.6-.3.9-.6c.2-.2.4-.5.6-.9s.2-.7.2-1.1-.1-.7-.2-1.1c-.1-.3-.3-.6-.6-.9-.2-.2-.5-.4-.9-.6-.3-.1-.7-.2-1-.2-.4 0-.7.1-1.1.2-.3.1-.6.3-.9.6s-.4.5-.6.9c-.1.3-.2.7-.2 1.1s.1.7.2 1.1c.1.3.3.6.6.9s.5.4.9.6c.4.1.7.2 1.1.2zM63.2 50v-4h-2.3V33.4h-7.4v4H56V46h-2.5v4zM72.1 33.3c.7 0 1.4.1 2 .2s1.2.3 1.7.6v-.3h4.7V49.4c0 1.2-.3 2.3-.7 3.2-.5 1-1.1 1.8-1.9 2.4s-1.7 1.1-2.7 1.4-2.1.5-3.2.5c-1.4 0-2.7-.2-3.9-.6s-2.2-.9-3.2-1.5l1.9-3.4.3.2c.6.4 1.3.7 2 .9.8.3 1.8.4 2.8.4.6 0 1.1-.1 1.5-.2.5-.1.9-.3 1.2-.6s.6-.7.8-1.2.3-1.1.3-1.9v-.1l-.2.1c-.5.3-1 .5-1.5.6-.6.1-1.2.2-1.8.2-1.2 0-2.4-.2-3.4-.6s-1.9-1-2.7-1.7-1.3-1.6-1.8-2.6c-.4-1-.6-2.1-.6-3.3 0-1.1.2-2.2.6-3.2s1-1.9 1.7-2.6 1.6-1.3 2.6-1.8c1.2-.4 2.4-.7 3.5-.7zm.4 4.3c-.5 0-1 .1-1.5.3s-.9.5-1.3.8-.6.8-.8 1.2-.3 1-.3 1.6.1 1.2.3 1.7.5.9.8 1.3c.3.3.8.6 1.2.8.5.2 1 .3 1.6.3.7 0 1.4-.2 2-.5s1-.8 1.4-1.4v-3.9l-.1-.2c-.3-.6-.8-1-1.3-1.4-.6-.4-1.3-.6-2-.6zM130.7 50v-4.4h-3.1v-6c.1-.4.2-.7.4-.9l.6-.6c.2-.1.5-.2.9-.3s.7-.1 1.1-.1v1.7h4.1v-6h-3.9c-.6 0-1.2.1-1.8.3-.5.2-1 .5-1.5.9v-1.2h-6.8v4.4h2.2v7.9h-2.3V50zM29 33.3c1.2 0 2.3.2 3.3.6.9.4 1.7 1 2.4 1.7s1.2 1.6 1.5 2.5c.4 1 .5 2 .6 3.1 0 .3 0 .5.1.7v.8H25.3v.5l.1.2c.1.4.3.7.5 1l.9.9c.4.2.8.4 1.2.5s.9.2 1.3.2c.5 0 .9 0 1.3-.1s.8-.1 1.2-.2.8-.2 1.1-.3.7-.3 1.1-.4l1.7 3.1-.3.2c-.5.3-.9.5-1.3.7-.5.2-1 .4-1.4.6s-1 .3-1.5.4h-1.9c-1.4 0-2.6-.2-3.6-.7s-1.9-1.1-2.7-1.8c-.7-.8-1.3-1.7-1.6-2.7-.4-1-.6-2.1-.6-3.2s.2-2.2.6-3.2 1-1.9 1.7-2.6 1.6-1.3 2.6-1.8 2.1-.7 3.3-.7zm-.1 3.8c-.6 0-1 .1-1.4.2s-.7.3-1 .6c-.3.2-.5.5-.6.8-.2.3-.3.6-.4.9H32c-.1-.3-.2-.7-.3-1s-.3-.6-.5-.8-.5-.4-.9-.5-.9-.2-1.4-.2zM111.7 33.3c1.2 0 2.3.2 3.3.6.9.4 1.7 1 2.4 1.7s1.2 1.6 1.5 2.5c.4 1 .5 2 .6 3.1 0 .3 0 .5.1.7s0 .5 0 .8H108v.5l.1.2c.1.4.3.7.5 1l.9.9c.4.2.8.4 1.2.5s.9.2 1.3.2c.5 0 .9 0 1.3-.1s.8-.1 1.2-.2.8-.2 1.1-.3.7-.3 1.1-.4l1.7 3.1-.3.2c-.5.3-.9.5-1.3.7-.5.2-1 .4-1.4.6s-1 .3-1.5.4-1.2.1-1.9.1c-1.4 0-2.6-.2-3.6-.7-1.1-.4-1.9-1.1-2.7-1.8-.7-.8-1.3-1.7-1.6-2.7-.4-1-.6-2.1-.6-3.2s.2-2.2.6-3.2 1-1.9 1.7-2.6 1.6-1.3 2.6-1.8c.9-.6 2-.8 3.3-.8zm-.2 3.8c-.6 0-1 .1-1.4.2s-.7.3-1 .6c-.3.2-.5.5-.6.8-.2.3-.3.6-.4.9h6.5c-.1-.3-.2-.7-.3-1s-.3-.6-.5-.8-.5-.4-.9-.5-.8-.2-1.4-.2zM92.4 50v-4.3h-2.6v-6.3c.5-.7 1-1.1 1.6-1.4.5-.2 1.1-.4 1.6-.4.8 0 1.4.3 1.9.8s.7 1.2.7 2.2V50h7.2v-4.3h-2.2v-5.9c0-2.1-.5-3.7-1.5-4.8s-2.5-1.7-4.4-1.7c-.9 0-1.8.2-2.6.5s-1.6.7-2.2 1.3v-1.4h-7.2V38H85v7.7h-2.3V50zM48 22.9v-4.3h-2.6v-6.3c.5-.7 1-1.1 1.6-1.4.5-.2 1.1-.4 1.6-.4.8 0 1.4.3 1.9.8s.7 1.2.7 2.2v9.4h7.2v-4.3h-2.2v-5.9c0-2.1-.5-3.7-1.5-4.8s-2.5-1.7-4.4-1.7c-.9 0-1.8.2-2.6.5s-1.6.8-2.3 1.3V6.6h-7.2v4.3h2.3v7.7h-2.3v4.3zM84.8 23.1c.7 0 1.3-.1 1.9-.4.6-.2 1.1-.6 1.5-1s.8-.9 1-1.5.4-1.2.4-1.9c0-.5-.1-.9-.3-1.4-.2-.4-.4-.8-.7-1.1s-.7-.6-1.1-.7c-.5-.1-1-.1-1.5-.1-.6 0-1.2.1-1.8.3s-1.1.5-1.5 1c-.4.4-.8.9-1 1.5-.3.6-.4 1.2-.4 1.9 0 .5.1.9.3 1.3s.4.8.7 1.1.7.6 1.1.7c.4.2.9.3 1.4.3zm.3-2.2c-.2 0-.4 0-.5-.1-.2-.1-.3-.2-.4-.3s-.2-.3-.3-.5-.1-.4-.1-.6c0-.3.1-.6.2-.9s.3-.5.4-.7c.2-.2.4-.4.6-.5s.5-.2.8-.2c.2 0 .3 0 .5.1s.3.2.4.3.2.3.3.5.1.4.1.7-.1.6-.2.9-.3.5-.5.7-.4.4-.7.5-.4.1-.6.1zm7 5.5l2.1-9.1h1.7l.5-2.2h-1.6l.2-1c.1-.3.2-.5.4-.7.2-.1.4-.2.6-.2s.3 0 .4.1c.1 0 .2.1.3.2l1.4-1.7c0-.1-.1-.1-.2-.2s-.3-.2-.4-.2-.4-.1-.6-.2c-.2 0-.5-.1-.8-.1-.4 0-.8.1-1.2.2s-.7.3-1 .5-.6.5-.8.9-.4.8-.5 1.2l-.3 1.3h-1.5l-.5 2.2h1.5l-2.1 9.1h2.4z"/></svg></svg>